<svg width="18" height="18" viewBox="0 0 18 18" fill="none" xmlns="http://www.w3.org/2000/svg">
<path d="M16.7821 0.250977H1.21494C0.681873 0.250977 0.249084 0.682901 0.249084 1.21683V16.784C0.249084 17.3179 0.681873 17.7504 1.21494 17.7504H9.59582V10.9736H7.31547V8.3322H9.59582V6.38436C9.59582 4.12446 10.9757 2.89323 12.9922 2.89323C13.9589 2.89323 14.7879 2.96556 15.0296 2.99697V5.35915L13.631 5.35973C12.5346 5.35973 12.3231 5.88098 12.3231 6.64542V8.33133H14.9388L14.5968 10.9724H12.3228V17.7495H16.7818C17.3154 17.7495 17.7485 17.3165 17.7485 16.784V1.21625C17.7482 0.682901 17.3157 0.250977 16.7821 0.250977Z" fill="#323232"/>
</svg>
