<svg width="18" height="18" viewBox="0 0 18 18" fill="none" xmlns="http://www.w3.org/2000/svg">
<path d="M15.1865 0.25H2.81348C1.40009 0.25 0.25 1.40009 0.25 2.81348V15.1865C0.25 16.5999 1.40009 17.75 2.81348 17.75H15.1865C16.5999 17.75 17.75 16.5999 17.75 15.1865V2.81348C17.75 1.40009 16.5999 0.25 15.1865 0.25ZM9.03418 13.5801C6.4898 13.5801 4.41992 11.5102 4.41992 8.96582C4.41992 6.42144 6.4898 4.35156 9.03418 4.35156C11.5786 4.35156 13.6484 6.42144 13.6484 8.96582C13.6484 11.5102 11.5786 13.5801 9.03418 13.5801ZM14.1611 5.37695C13.313 5.37695 12.623 4.68695 12.623 3.83887C12.623 2.99078 13.313 2.30078 14.1611 2.30078C15.0092 2.30078 15.6992 2.99078 15.6992 3.83887C15.6992 4.68695 15.0092 5.37695 14.1611 5.37695Z" fill="#323232"/>
</svg>
